M48
; DRILL file {KiCad (6.0.0)} date Tue Sep 13 16:11:23 2022
; FORMAT={-:-/ absolute / inch / decimal}
; #@! TF.CreationDate,2022-09-13T16:11:23+02:00
; #@! TF.GenerationSoftware,Kicad,Pcbnew,(6.0.0)
; #@! TF.FileFunction,Plated,1,4,PTH
FMAT,2
INCH
; #@! TA.AperFunction,Plated,PTH,ViaDrill
T1C0.0118
; #@! TA.AperFunction,Plated,PTH,ComponentDrill
T2C0.0236
; #@! TA.AperFunction,Plated,PTH,ComponentDrill
T3C0.0394
; #@! TA.AperFunction,Plated,PTH,ComponentDrill
T4C0.0472
; #@! TA.AperFunction,Plated,PTH,ComponentDrill
T5C0.0709
; #@! TA.AperFunction,Plated,PTH,ComponentDrill
T6C0.1063
%
G90
G05
T1
X6.5315Y-2.0302
X6.5315Y-2.0696
X6.5317Y-2.1144
X6.5317Y-2.1538
X6.5668Y-2.0299
X6.5668Y-2.0693
X6.5669Y-2.1142
X6.5669Y-2.1535
X6.5988Y-2.2403
X6.5988Y-2.2803
X6.5988Y-2.3203
X6.5988Y-2.3603
X6.5988Y-2.3903
X6.6035Y-2.0302
X6.6035Y-2.0696
X6.6037Y-2.1144
X6.6037Y-2.1538
X6.6308Y-2.2393
X6.6308Y-2.2793
X6.6308Y-2.3193
X6.6308Y-2.3593
X6.6308Y-2.3893
X6.6388Y-2.0299
X6.6388Y-2.0693
X6.6389Y-2.1142
X6.6389Y-2.1535
X6.6658Y-2.2393
X6.6658Y-2.2793
X6.6658Y-2.3193
X6.6658Y-2.3593
X6.6658Y-2.3893
X6.7008Y-2.2393
X6.7008Y-2.2793
X6.7008Y-2.3193
X6.7008Y-2.3593
X6.7008Y-2.3893
X6.7575Y-2.1642
X6.7575Y-2.2036
X6.7928Y-2.1639
X6.7928Y-2.2033
X6.8295Y-2.1642
X6.8295Y-2.2036
X6.83Y-2.69
X6.8648Y-2.1639
X6.8648Y-2.2033
X6.9165Y-2.8875
X6.9348Y-2.1659
X6.9348Y-2.2053
X6.9354Y-1.9353
X6.9388Y-2.0859
X6.9388Y-2.1253
X6.9394Y-1.9734
X6.9394Y-2.0128
X6.9394Y-2.0521
X6.97Y-2.0869
X6.97Y-2.1263
X6.97Y-2.1656
X6.97Y-2.205
X6.9706Y-1.935
X6.9706Y-1.9744
X6.9706Y-2.0137
X6.9706Y-2.0531
X6.9984Y-2.695
X7.0197Y-2.5945
X7.024Y-1.8879
X7.024Y-1.9273
X7.0269Y-2.285
X7.0269Y-2.315
X7.0597Y-2.5945
X7.0634Y-1.8879
X7.0634Y-1.9273
X7.0669Y-2.285
X7.0669Y-2.315
X7.1028Y-1.8879
X7.1028Y-1.9273
X7.1255Y-2.5948
X7.1328Y-2.2253
X7.1328Y-2.2553
X7.1328Y-2.2853
X7.1328Y-2.3153
X7.14Y-2.745
X7.14Y-2.795
X7.1655Y-2.5948
X7.1728Y-2.2253
X7.1728Y-2.2553
X7.1728Y-2.2853
X7.1728Y-2.3153
X7.2154Y-1.8899
X7.2154Y-1.9293
X7.2244Y-2.5945
X7.2317Y-2.285
X7.2317Y-2.315
X7.2548Y-1.8899
X7.2548Y-1.9293
X7.2644Y-2.5945
X7.2717Y-2.285
X7.2717Y-2.315
X7.2941Y-1.8899
X7.2941Y-1.9293
X7.3208Y-2.0013
X7.3528Y-2.5573
X7.3638Y-5.6088
X7.364Y-2.988
X7.3976Y-2.8228
X7.4206Y-2.5748
X7.4206Y-2.6102
X7.4488Y-1.8976
X7.4606Y-2.5748
X7.4606Y-2.6102
X7.4888Y-1.8976
X7.5361Y-5.0257
X7.5528Y-2.5593
X7.5528Y-2.5913
X7.5528Y-2.6223
X7.5546Y-1.898
X7.5946Y-1.898
X7.6028Y-2.5593
X7.6028Y-2.5913
X7.6028Y-2.6203
X7.6528Y-2.5593
X7.6528Y-2.5913
X7.6528Y-2.6203
X7.6535Y-1.8976
X7.664Y-4.768
X7.666Y-4.8
X7.6888Y-5.4592
X7.69Y-5.375
X7.692Y-4.768
X7.6935Y-1.8976
X7.694Y-4.8
X7.72Y-4.768
X7.72Y-4.8
X7.75Y-4.768
X7.752Y-4.8
X7.7559Y-1.9055
X7.7559Y-1.9455
X7.778Y-4.768
X7.78Y-4.8
X7.7944Y-4.9844
X7.806Y-4.768
X7.806Y-4.8
X7.8104Y-1.907
X7.8104Y-1.937
X7.8104Y-1.9696
X7.815Y-5.59
X7.82Y-2.822
X7.8498Y-2.2835
X7.8504Y-1.907
X7.8504Y-1.937
X7.8504Y-1.9696
X7.864Y-4.792
X7.864Y-4.86
X7.866Y-4.824
X7.866Y-4.892
X7.8898Y-2.2835
X7.892Y-4.792
X7.892Y-4.86
X7.894Y-4.824
X7.894Y-4.892
X7.92Y-4.792
X7.92Y-4.824
X7.92Y-4.86
X7.92Y-4.892
X7.9338Y-2.7743
X7.9449Y-2.3307
X7.9449Y-2.3701
X7.9449Y-2.4094
X7.95Y-4.792
X7.95Y-4.86
X7.952Y-4.824
X7.952Y-4.892
X7.9528Y-2.2853
X7.9578Y-2.4453
X7.9778Y-2.2853
X7.9828Y-2.4453
X8.0028Y-2.2853
X8.0078Y-2.4453
X8.0276Y-5.126
X8.0278Y-2.2853
X8.0323Y-2.8097
X8.0328Y-2.4453
X8.0578Y-2.2853
X8.0578Y-2.4453
X8.058Y-5.046
X8.0591Y-2.3268
X8.0591Y-2.3661
X8.0591Y-2.4055
X8.0669Y-2.5276
X8.068Y-2.612
X8.1898Y-5.1802
X8.22Y-5.32
X8.2328Y-3.2348
X8.2835Y-5.0651
X8.3358Y-5.0267
X8.3448Y-3.0214
X8.3448Y-4.4263
X8.354Y-1.978
X8.3645Y-5.1002
X8.3645Y-5.14
X8.4629Y-4.8053
X8.4988Y-3.0013
X8.5Y-2.624
X8.5148Y-3.3053
X8.5157Y-3.5276
X8.52Y-2.37
X8.52Y-2.4
X8.524Y-2.484
X8.526Y-1.928
X8.526Y-1.954
X8.526Y-1.984
X8.526Y-2.012
X8.526Y-2.038
X8.5268Y-5.4703
X8.5276Y-2.2205
X8.5276Y-2.2559
X8.5276Y-2.2953
X8.558Y-1.926
X8.558Y-1.954
X8.558Y-1.982
X8.558Y-2.01
X8.558Y-2.038
X8.5669Y-2.2205
X8.5669Y-2.2559
X8.5669Y-2.2953
X8.595Y-2.839
X8.5984Y-2.3228
X8.602Y-1.916
X8.602Y-1.948
X8.6028Y-2.5953
X8.618Y-2.862
X8.628Y-1.916
X8.63Y-1.948
X8.637Y-2.881
X8.6378Y-2.3228
X8.656Y-1.916
X8.658Y-1.948
X8.658Y-2.902
X8.6708Y-3.3613
X8.686Y-1.916
X8.686Y-1.948
X8.712Y-1.916
X8.714Y-1.948
X8.7178Y-2.7093
X8.7758Y-2.8263
X8.7835Y-3.5354
X8.7924Y-4.9449
X8.8588Y-2.9493
X8.8588Y-4.4843
X8.866Y-1.922
X8.866Y-1.954
X8.878Y-5.472
X8.892Y-1.922
X8.894Y-1.954
X8.8974Y-5.5146
X8.898Y-2.354
X8.9031Y-2.8689
X8.906Y-2.402
X8.915Y-5.067
X8.92Y-1.922
X8.922Y-1.954
X8.9237Y-2.5133
X8.952Y-1.922
X8.952Y-1.954
X8.978Y-1.922
X8.98Y-1.954
X8.996Y-2.48
X8.996Y-2.51
X8.996Y-2.542
X9.006Y-1.922
X9.008Y-1.954
X9.016Y-3.622
X9.016Y-3.65
X9.016Y-3.676
X9.016Y-3.708
X9.016Y-3.736
X9.016Y-3.762
X9.016Y-3.794
X9.016Y-3.822
X9.016Y-3.848
X9.016Y-3.88
X9.016Y-3.908
X9.016Y-3.934
X9.016Y-4.05
X9.016Y-4.405
X9.022Y-2.51
X9.024Y-2.48
X9.024Y-2.542
X9.0328Y-2.8323
X9.04Y-1.922
X9.04Y-1.954
X9.048Y-3.62
X9.048Y-3.648
X9.048Y-3.676
X9.048Y-3.706
X9.048Y-3.734
X9.048Y-3.762
X9.048Y-3.792
X9.048Y-3.82
X9.048Y-3.848
X9.048Y-3.878
X9.048Y-3.906
X9.048Y-3.934
X9.05Y-2.51
X9.052Y-2.34
X9.052Y-2.48
X9.052Y-2.542
X9.066Y-1.922
X9.0669Y-5.4567
X9.068Y-1.954
X9.091Y-3.069
X9.091Y-3.094
X9.091Y-3.124
X9.091Y-3.149
X9.091Y-3.179
X9.091Y-3.204
X9.0913Y-3.2369
X9.0913Y-3.2619
X9.0913Y-3.2919
X9.0913Y-3.3169
X9.0913Y-3.3469
X9.0913Y-3.3719
X9.094Y-1.922
X9.096Y-1.954
X9.102Y-2.392
X9.102Y-4.046
X9.104Y-4.078
X9.1044Y-5.0636
X9.1156Y-3.069
X9.1156Y-3.124
X9.1156Y-3.179
X9.1159Y-3.2369
X9.1159Y-3.2919
X9.1159Y-3.3469
X9.116Y-3.094
X9.116Y-3.149
X9.116Y-3.204
X9.1163Y-3.2619
X9.1163Y-3.3169
X9.1163Y-3.3719
X9.128Y-1.922
X9.128Y-1.954
X9.13Y-4.046
X9.132Y-4.078
X9.153Y-3.071
X9.153Y-3.096
X9.153Y-3.126
X9.153Y-3.151
X9.153Y-3.181
X9.153Y-3.206
X9.1533Y-3.2389
X9.1533Y-3.2639
X9.1533Y-3.2939
X9.1533Y-3.3189
X9.1533Y-3.3489
X9.1533Y-3.3739
X9.154Y-1.922
X9.156Y-1.954
X9.158Y-4.046
X9.158Y-4.078
X9.1668Y-2.3233
X9.1668Y-2.3553
X9.176Y-3.788
X9.1776Y-3.071
X9.1776Y-3.126
X9.1776Y-3.181
X9.1779Y-3.2389
X9.1779Y-3.2939
X9.1779Y-3.3489
X9.178Y-2.482
X9.178Y-3.096
X9.178Y-3.151
X9.178Y-3.206
X9.1783Y-3.2639
X9.1783Y-3.3189
X9.1783Y-3.3739
X9.182Y-1.922
X9.184Y-1.954
X9.188Y-4.046
X9.19Y-4.078
X9.1928Y-2.3233
X9.1948Y-2.3553
X9.216Y-4.046
X9.218Y-4.078
X9.2208Y-2.3233
X9.2228Y-2.3553
X9.244Y-4.046
X9.244Y-4.078
X9.2468Y-1.9233
X9.2468Y-1.9553
X9.2468Y-2.0833
X9.2468Y-2.1153
X9.2468Y-2.1533
X9.2468Y-2.1853
X9.2468Y-2.2633
X9.2468Y-2.2953
X9.2528Y-2.6703
X9.2528Y-2.6983
X9.2528Y-2.7243
X9.2528Y-2.8083
X9.2528Y-2.8343
X9.2528Y-2.8703
X9.2528Y-2.8983
X9.2528Y-2.9243
X9.2728Y-1.9233
X9.2728Y-2.0833
X9.2728Y-2.1533
X9.2728Y-2.2633
X9.2728Y-2.9753
X9.2728Y-3.0153
X9.2728Y-3.0433
X9.2728Y-3.0693
X9.2728Y-3.1003
X9.2728Y-3.1283
X9.2728Y-3.1543
X9.2748Y-1.9553
X9.2748Y-2.1153
X9.2748Y-2.1853
X9.2748Y-2.2953
X9.28Y-1.984
X9.282Y-4.046
X9.284Y-4.078
X9.29Y-3.25
X9.29Y-3.275
X9.29Y-3.3
X9.29Y-3.325
X9.29Y-3.35
X9.29Y-3.375
X9.29Y-3.4
X9.29Y-3.425
X9.3008Y-1.9233
X9.3008Y-2.0833
X9.3008Y-2.1533
X9.3008Y-2.2633
X9.3028Y-1.9553
X9.3028Y-2.1153
X9.3028Y-2.1853
X9.3028Y-2.2953
X9.31Y-4.046
X9.312Y-4.078
X9.336Y-3.504
X9.336Y-3.536
X9.338Y-4.046
X9.338Y-4.078
X9.3428Y-3.9653
X9.3495Y-2.594
X9.3495Y-2.626
X9.3578Y-2.9286
X9.3578Y-2.9606
X9.362Y-3.504
X9.364Y-3.536
X9.368Y-4.046
X9.369Y-3.785
X9.369Y-3.817
X9.37Y-4.078
X9.3755Y-2.594
X9.3775Y-2.626
X9.3838Y-2.9286
X9.3858Y-2.9606
X9.39Y-3.504
X9.392Y-3.536
X9.396Y-4.046
X9.398Y-4.078
X9.4035Y-2.594
X9.4055Y-2.626
X9.4086Y-2.2397
X9.4086Y-2.2717
X9.4118Y-2.9286
X9.4138Y-2.9606
X9.424Y-4.046
X9.424Y-4.078
X9.4268Y-1.9036
X9.4268Y-1.9356
X9.43Y-3.5064
X9.43Y-3.5314
X9.4346Y-2.2397
X9.4366Y-2.2717
X9.44Y-3.325
X9.44Y-3.35
X9.44Y-3.375
X9.4479Y-2.594
X9.4479Y-2.626
X9.4528Y-1.9036
X9.4548Y-1.9356
X9.455Y-3.5064
X9.455Y-3.5314
X9.4563Y-2.9286
X9.4563Y-2.9606
X9.46Y-4.044
X9.462Y-4.076
X9.4626Y-2.2397
X9.4646Y-3.325
X9.4646Y-2.2717
X9.465Y-3.35
X9.465Y-3.375
X9.4739Y-2.594
X9.4759Y-2.626
X9.48Y-3.5064
X9.48Y-3.5314
X9.4808Y-1.9036
X9.4823Y-2.9286
X9.4828Y-1.9356
X9.4843Y-2.9606
X9.488Y-4.044
X9.49Y-4.076
X9.5019Y-2.594
X9.5039Y-2.626
X9.505Y-3.5064
X9.505Y-3.5314
X9.507Y-2.2397
X9.507Y-2.2717
X9.5103Y-2.9286
X9.5123Y-2.9606
X9.516Y-4.044
X9.516Y-4.076
X9.5168Y-1.9036
X9.5168Y-1.9356
X9.53Y-3.5064
X9.53Y-3.5314
X9.532Y-3.776
X9.533Y-2.2397
X9.535Y-2.2717
X9.5428Y-1.9036
X9.5448Y-1.9356
X9.546Y-4.044
X9.548Y-4.076
X9.555Y-3.5064
X9.555Y-3.5314
X9.561Y-2.2397
X9.563Y-2.2717
X9.5708Y-1.9036
X9.5728Y-1.9356
X9.574Y-4.044
X9.576Y-4.076
X9.5818Y-4.2033
X9.5818Y-4.2353
X9.602Y-4.044
X9.602Y-4.076
X9.6078Y-4.2033
X9.6098Y-4.2353
X9.6102Y-3.0236
X9.6102Y-3.0591
X9.6102Y-3.0984
X9.6102Y-3.1339
X9.6102Y-3.1732
X9.6137Y-2.9286
X9.6137Y-2.9606
X9.614Y-3.239
X9.614Y-3.264
X9.614Y-3.289
X9.614Y-3.314
X9.614Y-3.339
X9.614Y-3.364
X9.614Y-3.389
X9.614Y-3.414
X9.6251Y-2.594
X9.6251Y-2.626
X9.6358Y-4.2033
X9.6378Y-4.2353
X9.6397Y-2.9286
X9.6417Y-2.9606
X9.6511Y-2.594
X9.6531Y-2.626
X9.658Y-3.9135
X9.6677Y-2.9286
X9.6697Y-2.9606
X9.6768Y-4.2033
X9.6768Y-4.2353
X9.6791Y-2.594
X9.6811Y-2.626
X9.6842Y-2.2397
X9.6842Y-2.2717
X9.6868Y-1.9036
X9.6868Y-1.9356
X9.692Y-3.5
X9.694Y-3.532
X9.7028Y-4.2033
X9.7048Y-4.2353
X9.7102Y-2.2397
X9.7122Y-2.2717
X9.7128Y-1.9036
X9.7148Y-1.9356
X9.72Y-3.5
X9.722Y-3.532
X9.7235Y-2.594
X9.7235Y-2.626
X9.7308Y-4.2033
X9.7318Y-2.9286
X9.7318Y-2.9606
X9.7328Y-4.2353
X9.7382Y-2.2397
X9.7402Y-2.2717
X9.7408Y-1.9036
X9.7428Y-1.9356
X9.7495Y-2.594
X9.75Y-3.4564
X9.75Y-3.4814
X9.75Y-3.5064
X9.75Y-3.5314
X9.7515Y-2.626
X9.7578Y-2.9286
X9.7598Y-2.9606
X9.76Y-3.325
X9.76Y-3.35
X9.76Y-3.375
X9.7718Y-4.2033
X9.7718Y-4.2353
X9.7746Y-3.4564
X9.775Y-3.4814
X9.775Y-3.5064
X9.775Y-3.5314
X9.7775Y-2.594
X9.7795Y-2.626
X9.7826Y-1.905
X9.7826Y-1.937
X9.7826Y-2.2397
X9.7826Y-2.2717
X9.7846Y-3.325
X9.785Y-3.35
X9.785Y-3.375
X9.7858Y-2.9286
X9.7878Y-2.9606
X9.7978Y-4.2033
X9.7998Y-4.2353
X9.7999Y-3.4564
X9.7999Y-3.4812
X9.8Y-3.5064
X9.8Y-3.5314
X9.8086Y-1.905
X9.8086Y-2.2397
X9.8106Y-1.937
X9.8106Y-2.2717
X9.8247Y-3.4564
X9.825Y-3.5064
X9.825Y-3.5314
X9.8252Y-3.4812
X9.8258Y-4.2033
X9.8278Y-4.2353
X9.8366Y-1.905
X9.8366Y-2.2397
X9.8386Y-1.937
X9.8386Y-2.2717
X9.85Y-3.4564
X9.85Y-3.4814
X9.85Y-3.5064
X9.85Y-3.5314
X9.8748Y-3.4812
X9.875Y-3.4564
X9.875Y-3.5064
X9.875Y-3.5314
X9.8758Y-4.3973
X9.8758Y-4.4253
X9.8758Y-4.4513
X9.9078Y-4.3953
X9.9078Y-4.4233
X9.9078Y-4.4513
X9.9252Y-3.3346
X9.9252Y-3.3701
X9.9252Y-3.4055
X9.9252Y-3.4449
X9.9252Y-3.4803
X9.9252Y-3.5157
X9.9278Y-2.5953
X9.9278Y-2.6233
X9.9278Y-2.6493
X9.9328Y-2.8303
X9.9328Y-2.8583
X9.9328Y-2.8843
X9.9328Y-2.9203
X9.9328Y-2.9483
X9.9328Y-2.9743
X9.9328Y-3.0103
X9.9328Y-3.0383
X9.9328Y-3.0643
X9.9328Y-3.1003
X9.9328Y-3.1283
X9.9328Y-3.1543
X9.9328Y-3.1903
X9.9328Y-3.2183
X9.9328Y-3.2443
X9.9606Y-3.3346
X9.9606Y-3.3701
X9.9606Y-3.4055
X9.9606Y-3.4449
X9.9606Y-3.4803
X9.9606Y-3.5157
T3
X7.0021Y-5.0151
X7.0021Y-5.1135
X7.0021Y-5.2119
X7.299Y-5.0135
X7.299Y-5.1135
X7.299Y-5.2135
X7.5507Y-5.2611
X7.6507Y-5.2611
X7.7507Y-5.2611
X8.63Y-4.9352
X8.63Y-5.0352
X8.63Y-5.1352
X8.63Y-5.2352
X8.63Y-5.3352
T4
X6.86Y-3.24
X6.86Y-3.4369
X6.86Y-3.82
X6.86Y-4.0169
X6.86Y-4.4
X6.86Y-4.5969
X7.437Y-3.2245
X7.437Y-3.4213
X7.452Y-4.4155
X7.452Y-4.6124
X8.028Y-3.8055
X8.028Y-4.0024
X8.03Y-3.23
X8.03Y-3.4269
X8.03Y-4.39
X8.03Y-4.5869
X8.61Y-3.81
X8.61Y-4.0069
X8.61Y-4.39
X8.61Y-4.5869
X9.212Y-4.3875
X9.212Y-4.5844
T6
X6.8325Y-2.0472
X6.8325Y-2.3307
T2
G00X6.5746Y-1.9232
M15
G01X6.6179Y-1.9232
M16
G05
G00X6.5746Y-2.4547
M15
G01X6.6179Y-2.4547
M16
G05
T5
G00X6.7324Y-4.9403
M15
G01X6.7206Y-4.9403
M16
G05
G00X6.7324Y-5.2867
M15
G01X6.7206Y-5.2867
M16
G05
T0
M30
