%TF.GenerationSoftware,KiCad,Pcbnew,(6.0.0)*%
%TF.CreationDate,2022-09-13T16:11:23+02:00*%
%TF.ProjectId,IceCutterPCB,49636543-7574-4746-9572-5043422e6b69,rev?*%
%TF.SameCoordinates,Original*%
%TF.FileFunction,Soldermask,Bot*%
%TF.FilePolarity,Negative*%
%FSLAX46Y46*%
G04 Gerber Fmt 4.6, Leading zero omitted, Abs format (unit mm)*
G04 Created by KiCad (PCBNEW (6.0.0)) date 2022-09-13 16:11:23*
%MOMM*%
%LPD*%
G01*
G04 APERTURE LIST*
%ADD10R,2.400000X2.400000*%
%ADD11C,2.400000*%
%ADD12R,1.700000X1.700000*%
%ADD13O,1.700000X1.700000*%
%ADD14R,3.716000X3.716000*%
%ADD15C,3.716000*%
%ADD16O,2.400000X1.200000*%
%ADD17C,3.000000*%
%ADD18R,2.000000X2.000000*%
%ADD19C,2.000000*%
G04 APERTURE END LIST*
D10*
%TO.C,C17*%
X203962000Y-82042000D03*
D11*
X203962000Y-87042000D03*
%TD*%
D12*
%TO.C,J2*%
X185395800Y-132423000D03*
D13*
X185395800Y-129883000D03*
X185395800Y-127343000D03*
%TD*%
D10*
%TO.C,C20*%
X174244000Y-111760000D03*
D11*
X174244000Y-116760000D03*
%TD*%
D10*
%TO.C,C15*%
X188900000Y-81902272D03*
D11*
X188900000Y-86902272D03*
%TD*%
D12*
%TO.C,J5*%
X191787000Y-133631400D03*
D13*
X194327000Y-133631400D03*
X196867000Y-133631400D03*
%TD*%
D10*
%TO.C,C10*%
X203962000Y-111506000D03*
D11*
X203962000Y-116506000D03*
%TD*%
D10*
%TO.C,C21*%
X218694000Y-96774000D03*
D11*
X218694000Y-101774000D03*
%TD*%
D10*
%TO.C,C18*%
X233984800Y-111443472D03*
D11*
X233984800Y-116443472D03*
%TD*%
D12*
%TO.C,J4*%
X219202000Y-125354000D03*
D13*
X219202000Y-127894000D03*
X219202000Y-130434000D03*
X219202000Y-132974000D03*
X219202000Y-135514000D03*
%TD*%
D14*
%TO.C,J1*%
X173545000Y-52000000D03*
D15*
X173545000Y-59200000D03*
D16*
X167545000Y-48850000D03*
X167545000Y-62350000D03*
%TD*%
D17*
%TO.C,RV1*%
X170852800Y-134283000D03*
X170852800Y-125483000D03*
D18*
X177852800Y-132383000D03*
D19*
X177852800Y-129883000D03*
X177852800Y-127383000D03*
%TD*%
D10*
%TO.C,C13*%
X189280800Y-112154672D03*
D11*
X189280800Y-117154672D03*
%TD*%
D10*
%TO.C,C14*%
X203911200Y-96660672D03*
D11*
X203911200Y-101660672D03*
%TD*%
D10*
%TO.C,C22*%
X174244000Y-82296000D03*
D11*
X174244000Y-87296000D03*
%TD*%
D10*
%TO.C,C16*%
X174244000Y-97028000D03*
D11*
X174244000Y-102028000D03*
%TD*%
D10*
%TO.C,C19*%
X218694000Y-111506000D03*
D11*
X218694000Y-116506000D03*
%TD*%
D19*
%TO.C,TP23*%
X187900000Y-71700000D03*
%TD*%
%TO.C,TP17*%
X244220000Y-82261000D03*
%TD*%
%TO.C,TP26*%
X211531200Y-92202000D03*
%TD*%
%TO.C,TP28*%
X226466400Y-128727200D03*
%TD*%
%TO.C,TP16*%
X185388400Y-50984800D03*
%TD*%
%TO.C,TP1*%
X198628000Y-71678800D03*
%TD*%
%TO.C,TP31*%
X235204000Y-75692000D03*
%TD*%
%TO.C,TP32*%
X231252000Y-128615200D03*
%TD*%
%TO.C,TP22*%
X212140800Y-50038000D03*
%TD*%
%TO.C,TP15*%
X198424800Y-141986000D03*
%TD*%
%TO.C,TP33*%
X187045600Y-75793600D03*
%TD*%
%TO.C,TP27*%
X235712000Y-50393600D03*
%TD*%
%TO.C,TP25*%
X226009200Y-72948800D03*
%TD*%
%TO.C,TP18*%
X233121200Y-62687200D03*
%TD*%
%TO.C,TP24*%
X229006400Y-102870000D03*
%TD*%
M02*
