%TF.GenerationSoftware,KiCad,Pcbnew,(6.0.0)*%
%TF.CreationDate,2022-09-13T16:11:23+02:00*%
%TF.ProjectId,IceCutterPCB,49636543-7574-4746-9572-5043422e6b69,rev?*%
%TF.SameCoordinates,Original*%
%TF.FileFunction,Paste,Top*%
%TF.FilePolarity,Positive*%
%FSLAX46Y46*%
G04 Gerber Fmt 4.6, Leading zero omitted, Abs format (unit mm)*
G04 Created by KiCad (PCBNEW (6.0.0)) date 2022-09-13 16:11:23*
%MOMM*%
%LPD*%
G01*
G04 APERTURE LIST*
G04 Aperture macros list*
%AMRoundRect*
0 Rectangle with rounded corners*
0 $1 Rounding radius*
0 $2 $3 $4 $5 $6 $7 $8 $9 X,Y pos of 4 corners*
0 Add a 4 corners polygon primitive as box body*
4,1,4,$2,$3,$4,$5,$6,$7,$8,$9,$2,$3,0*
0 Add four circle primitives for the rounded corners*
1,1,$1+$1,$2,$3*
1,1,$1+$1,$4,$5*
1,1,$1+$1,$6,$7*
1,1,$1+$1,$8,$9*
0 Add four rect primitives between the rounded corners*
20,1,$1+$1,$2,$3,$4,$5,0*
20,1,$1+$1,$4,$5,$6,$7,0*
20,1,$1+$1,$6,$7,$8,$9,0*
20,1,$1+$1,$8,$9,$2,$3,0*%
G04 Aperture macros list end*
%ADD10RoundRect,0.250000X-0.625000X0.312500X-0.625000X-0.312500X0.625000X-0.312500X0.625000X0.312500X0*%
%ADD11RoundRect,0.135000X-0.185000X0.135000X-0.185000X-0.135000X0.185000X-0.135000X0.185000X0.135000X0*%
%ADD12RoundRect,1.050000X2.750000X-1.050000X2.750000X1.050000X-2.750000X1.050000X-2.750000X-1.050000X0*%
%ADD13RoundRect,1.075000X2.725000X-1.075000X2.725000X1.075000X-2.725000X1.075000X-2.725000X-1.075000X0*%
%ADD14RoundRect,0.160000X0.245000X0.160000X-0.245000X0.160000X-0.245000X-0.160000X0.245000X-0.160000X0*%
%ADD15RoundRect,0.093750X0.093750X0.106250X-0.093750X0.106250X-0.093750X-0.106250X0.093750X-0.106250X0*%
%ADD16R,2.750000X3.050000*%
%ADD17R,1.200000X2.200000*%
%ADD18RoundRect,2.500000X-5.000000X-2.500000X5.000000X-2.500000X5.000000X2.500000X-5.000000X2.500000X0*%
%ADD19RoundRect,0.250000X-0.325000X-0.650000X0.325000X-0.650000X0.325000X0.650000X-0.325000X0.650000X0*%
%ADD20RoundRect,0.135000X-0.135000X-0.185000X0.135000X-0.185000X0.135000X0.185000X-0.135000X0.185000X0*%
%ADD21R,3.050000X2.750000*%
%ADD22R,2.200000X1.200000*%
%ADD23RoundRect,0.150000X-0.825000X-0.150000X0.825000X-0.150000X0.825000X0.150000X-0.825000X0.150000X0*%
%ADD24RoundRect,0.225000X-0.225000X-0.250000X0.225000X-0.250000X0.225000X0.250000X-0.225000X0.250000X0*%
%ADD25RoundRect,0.150000X-0.587500X-0.150000X0.587500X-0.150000X0.587500X0.150000X-0.587500X0.150000X0*%
%ADD26RoundRect,0.225000X0.225000X0.250000X-0.225000X0.250000X-0.225000X-0.250000X0.225000X-0.250000X0*%
%ADD27RoundRect,0.140000X0.140000X0.170000X-0.140000X0.170000X-0.140000X-0.170000X0.140000X-0.170000X0*%
%ADD28RoundRect,0.250000X-0.650000X0.325000X-0.650000X-0.325000X0.650000X-0.325000X0.650000X0.325000X0*%
%ADD29RoundRect,0.135000X0.185000X-0.135000X0.185000X0.135000X-0.185000X0.135000X-0.185000X-0.135000X0*%
%ADD30RoundRect,2.500000X2.500000X-5.000000X2.500000X5.000000X-2.500000X5.000000X-2.500000X-5.000000X0*%
%ADD31R,1.700000X1.000000*%
%ADD32R,1.000000X1.700000*%
%ADD33RoundRect,0.140000X-0.140000X-0.170000X0.140000X-0.170000X0.140000X0.170000X-0.140000X0.170000X0*%
%ADD34RoundRect,0.160000X-0.245000X-0.160000X0.245000X-0.160000X0.245000X0.160000X-0.245000X0.160000X0*%
%ADD35RoundRect,0.093750X-0.093750X-0.106250X0.093750X-0.106250X0.093750X0.106250X-0.093750X0.106250X0*%
%ADD36RoundRect,0.135000X0.135000X0.185000X-0.135000X0.185000X-0.135000X-0.185000X0.135000X-0.185000X0*%
%ADD37RoundRect,0.218750X0.256250X-0.218750X0.256250X0.218750X-0.256250X0.218750X-0.256250X-0.218750X0*%
%ADD38RoundRect,0.225000X0.250000X-0.225000X0.250000X0.225000X-0.250000X0.225000X-0.250000X-0.225000X0*%
%ADD39RoundRect,0.140000X0.170000X-0.140000X0.170000X0.140000X-0.170000X0.140000X-0.170000X-0.140000X0*%
%ADD40RoundRect,2.500000X-2.500000X5.000000X-2.500000X-5.000000X2.500000X-5.000000X2.500000X5.000000X0*%
%ADD41RoundRect,1.050000X1.050000X2.750000X-1.050000X2.750000X-1.050000X-2.750000X1.050000X-2.750000X0*%
%ADD42RoundRect,1.075000X1.075000X2.725000X-1.075000X2.725000X-1.075000X-2.725000X1.075000X-2.725000X0*%
%ADD43RoundRect,0.100000X-0.637500X-0.100000X0.637500X-0.100000X0.637500X0.100000X-0.637500X0.100000X0*%
%ADD44RoundRect,0.140000X-0.170000X0.140000X-0.170000X-0.140000X0.170000X-0.140000X0.170000X0.140000X0*%
%ADD45RoundRect,0.150000X0.587500X0.150000X-0.587500X0.150000X-0.587500X-0.150000X0.587500X-0.150000X0*%
%ADD46RoundRect,0.160000X-0.160000X0.245000X-0.160000X-0.245000X0.160000X-0.245000X0.160000X0.245000X0*%
%ADD47RoundRect,0.093750X-0.106250X0.093750X-0.106250X-0.093750X0.106250X-0.093750X0.106250X0.093750X0*%
G04 APERTURE END LIST*
D10*
%TO.C,R29*%
X237032800Y-60625800D03*
X237032800Y-63550800D03*
%TD*%
D11*
%TO.C,R1*%
X190459800Y-123561000D03*
X190459800Y-124581000D03*
%TD*%
D12*
%TO.C,R5*%
X181610000Y-52004000D03*
D13*
X181610000Y-62804000D03*
%TD*%
D14*
%TO.C,U6*%
X227895200Y-139655600D03*
X227895200Y-140455600D03*
D15*
X228782700Y-140705600D03*
X228782700Y-140055600D03*
X228782700Y-139405600D03*
X227007700Y-139405600D03*
X227007700Y-140055600D03*
X227007700Y-140705600D03*
%TD*%
D16*
%TO.C,Q16*%
X246633000Y-77759000D03*
X249683000Y-77759000D03*
X246633000Y-81109000D03*
X249683000Y-81109000D03*
D17*
X245878000Y-85734000D03*
X250438000Y-85734000D03*
%TD*%
D11*
%TO.C,R2*%
X199745600Y-65072800D03*
X199745600Y-66092800D03*
%TD*%
D18*
%TO.C,J7*%
X245008400Y-53187600D03*
%TD*%
D19*
%TO.C,C5*%
X219925000Y-87700000D03*
X222875000Y-87700000D03*
%TD*%
D16*
%TO.C,Q1*%
X199389000Y-55455000D03*
X202439000Y-55455000D03*
X202439000Y-52105000D03*
X199389000Y-52105000D03*
D17*
X198634000Y-60080000D03*
X203194000Y-60080000D03*
%TD*%
D20*
%TO.C,R51*%
X245360000Y-94780100D03*
X246380000Y-94780100D03*
%TD*%
D21*
%TO.C,U7*%
X211812000Y-73280000D03*
X211812000Y-70230000D03*
X215162000Y-73280000D03*
X215162000Y-70230000D03*
D22*
X207187000Y-69475000D03*
X207187000Y-74035000D03*
%TD*%
D11*
%TO.C,R48*%
X237998000Y-93597000D03*
X237998000Y-94617000D03*
%TD*%
D23*
%TO.C,U8*%
X218505000Y-60325000D03*
X218505000Y-61595000D03*
X218505000Y-62865000D03*
X218505000Y-64135000D03*
X223455000Y-64135000D03*
X223455000Y-62865000D03*
X223455000Y-61595000D03*
X223455000Y-60325000D03*
%TD*%
D24*
%TO.C,C30*%
X239255000Y-96139000D03*
X240805000Y-96139000D03*
%TD*%
D25*
%TO.C,Q25*%
X239727500Y-92649000D03*
X239727500Y-94549000D03*
X241602500Y-93599000D03*
%TD*%
D11*
%TO.C,R30*%
X231140000Y-67308000D03*
X231140000Y-68328000D03*
%TD*%
D26*
%TO.C,C1*%
X196904603Y-126605000D03*
X195354603Y-126605000D03*
%TD*%
D27*
%TO.C,C9*%
X176880000Y-68358400D03*
X175920000Y-68358400D03*
%TD*%
D10*
%TO.C,R32*%
X243128800Y-60625800D03*
X243128800Y-63550800D03*
%TD*%
D26*
%TO.C,C25*%
X213813000Y-66675000D03*
X212263000Y-66675000D03*
%TD*%
D28*
%TO.C,C11*%
X222333000Y-80981400D03*
X222333000Y-83931400D03*
%TD*%
D29*
%TO.C,R6*%
X204021000Y-70487000D03*
X204021000Y-69467000D03*
%TD*%
%TO.C,R45*%
X232511600Y-99163600D03*
X232511600Y-98143600D03*
%TD*%
D30*
%TO.C,J9*%
X188823600Y-99466400D03*
%TD*%
D28*
%TO.C,C6*%
X214333000Y-80981400D03*
X214333000Y-83931400D03*
%TD*%
D31*
%TO.C,SW3*%
X184607600Y-138663600D03*
X178307600Y-138663600D03*
X178307600Y-142463600D03*
X184607600Y-142463600D03*
%TD*%
D11*
%TO.C,R24*%
X211571200Y-128524000D03*
X211571200Y-129544000D03*
%TD*%
D32*
%TO.C,SW2*%
X205105000Y-142875000D03*
X205105000Y-136575000D03*
X201305000Y-142875000D03*
X201305000Y-136575000D03*
%TD*%
D33*
%TO.C,C12*%
X220976400Y-90964400D03*
X221936400Y-90964400D03*
%TD*%
D18*
%TO.C,J8*%
X243586000Y-70612000D03*
%TD*%
D10*
%TO.C,R31*%
X240080800Y-60625800D03*
X240080800Y-63550800D03*
%TD*%
D26*
%TO.C,C31*%
X236385400Y-96266000D03*
X234835400Y-96266000D03*
%TD*%
D34*
%TO.C,U1*%
X227954000Y-60354700D03*
X227954000Y-61154700D03*
D35*
X227066500Y-60104700D03*
X227066500Y-60754700D03*
X227066500Y-61404700D03*
X228841500Y-61404700D03*
X228841500Y-60754700D03*
X228841500Y-60104700D03*
%TD*%
D20*
%TO.C,R7*%
X208972000Y-66675000D03*
X209992000Y-66675000D03*
%TD*%
D19*
%TO.C,C32*%
X213600400Y-87700000D03*
X216550400Y-87700000D03*
%TD*%
D36*
%TO.C,R53*%
X246382000Y-98336100D03*
X245362000Y-98336100D03*
%TD*%
D26*
%TO.C,C33*%
X218950000Y-90913600D03*
X217400000Y-90913600D03*
%TD*%
D29*
%TO.C,R28*%
X223901000Y-68074000D03*
X223901000Y-67054000D03*
%TD*%
D37*
%TO.C,D1*%
X190459800Y-127652500D03*
X190459800Y-126077500D03*
%TD*%
D20*
%TO.C,R4*%
X197963000Y-63500000D03*
X198983000Y-63500000D03*
%TD*%
%TO.C,R52*%
X245358000Y-93637100D03*
X246378000Y-93637100D03*
%TD*%
D38*
%TO.C,C24*%
X204021000Y-74054000D03*
X204021000Y-72504000D03*
%TD*%
D25*
%TO.C,Q24*%
X239727500Y-98160800D03*
X239727500Y-100060800D03*
X241602500Y-99110800D03*
%TD*%
D39*
%TO.C,C26*%
X172847000Y-71219000D03*
X172847000Y-70259000D03*
%TD*%
D40*
%TO.C,J13*%
X191516000Y-56896000D03*
%TD*%
D10*
%TO.C,R33*%
X246176800Y-60687300D03*
X246176800Y-63612300D03*
%TD*%
%TO.C,R34*%
X248970800Y-60625800D03*
X248970800Y-63550800D03*
%TD*%
D27*
%TO.C,C28*%
X224999600Y-140072000D03*
X224039600Y-140072000D03*
%TD*%
%TO.C,C8*%
X201239000Y-63500000D03*
X200279000Y-63500000D03*
%TD*%
D29*
%TO.C,R47*%
X237998000Y-99110800D03*
X237998000Y-98090800D03*
%TD*%
D41*
%TO.C,R27*%
X220660000Y-54356000D03*
D42*
X231460000Y-54356000D03*
%TD*%
D30*
%TO.C,J14*%
X210566000Y-56896000D03*
%TD*%
D28*
%TO.C,C23*%
X218199600Y-80981400D03*
X218199600Y-83931400D03*
%TD*%
D10*
%TO.C,R35*%
X251764800Y-60625800D03*
X251764800Y-63550800D03*
%TD*%
D27*
%TO.C,C7*%
X203807000Y-63500000D03*
X202847000Y-63500000D03*
%TD*%
D43*
%TO.C,U2*%
X201025300Y-125728000D03*
X201025300Y-126378000D03*
X201025300Y-127028000D03*
X201025300Y-127678000D03*
X201025300Y-128328000D03*
X201025300Y-128978000D03*
X201025300Y-129628000D03*
X201025300Y-130278000D03*
X201025300Y-130928000D03*
X201025300Y-131578000D03*
X206750300Y-131578000D03*
X206750300Y-130928000D03*
X206750300Y-130278000D03*
X206750300Y-129628000D03*
X206750300Y-128978000D03*
X206750300Y-128328000D03*
X206750300Y-127678000D03*
X206750300Y-127028000D03*
X206750300Y-126378000D03*
X206750300Y-125728000D03*
%TD*%
D37*
%TO.C,D2*%
X192364800Y-127652500D03*
X192364800Y-126077500D03*
%TD*%
D44*
%TO.C,C29*%
X230210000Y-60528700D03*
X230210000Y-61488700D03*
%TD*%
D32*
%TO.C,SW1*%
X214122000Y-142977000D03*
X214122000Y-136677000D03*
X210322000Y-136677000D03*
X210322000Y-142977000D03*
%TD*%
D39*
%TO.C,C27*%
X225552000Y-64081600D03*
X225552000Y-63121600D03*
%TD*%
D25*
%TO.C,Q22*%
X234393500Y-98160800D03*
X234393500Y-100060800D03*
X236268500Y-99110800D03*
%TD*%
D11*
%TO.C,R3*%
X192364800Y-123559000D03*
X192364800Y-124579000D03*
%TD*%
%TO.C,R22*%
X213400000Y-128524000D03*
X213400000Y-129544000D03*
%TD*%
D45*
%TO.C,Q14*%
X228013500Y-69530000D03*
X228013500Y-67630000D03*
X226138500Y-68580000D03*
%TD*%
D29*
%TO.C,R46*%
X232613200Y-93677200D03*
X232613200Y-92657200D03*
%TD*%
D44*
%TO.C,C3*%
X197459600Y-65130800D03*
X197459600Y-66090800D03*
%TD*%
D20*
%TO.C,R50*%
X245360000Y-95923100D03*
X246380000Y-95923100D03*
%TD*%
D16*
%TO.C,Q17*%
X241556000Y-81144000D03*
X238506000Y-77794000D03*
X238506000Y-81144000D03*
X241556000Y-77794000D03*
D17*
X237751000Y-85769000D03*
X242311000Y-85769000D03*
%TD*%
D23*
%TO.C,U4*%
X179643000Y-67183000D03*
X179643000Y-68453000D03*
X179643000Y-69723000D03*
X179643000Y-70993000D03*
X184593000Y-70993000D03*
X184593000Y-69723000D03*
X184593000Y-68453000D03*
X184593000Y-67183000D03*
%TD*%
D25*
%TO.C,Q23*%
X234393500Y-92649000D03*
X234393500Y-94549000D03*
X236268500Y-93599000D03*
%TD*%
D30*
%TO.C,J11*%
X247040400Y-113487200D03*
%TD*%
D20*
%TO.C,R49*%
X245360000Y-97066100D03*
X246380000Y-97066100D03*
%TD*%
D44*
%TO.C,C2*%
X197134800Y-127865000D03*
X197134800Y-128825000D03*
%TD*%
D46*
%TO.C,U5*%
X174275800Y-70789800D03*
X175075800Y-70789800D03*
D47*
X175325800Y-69902300D03*
X174675800Y-69902300D03*
X174025800Y-69902300D03*
X174025800Y-71677300D03*
X174675800Y-71677300D03*
X175325800Y-71677300D03*
%TD*%
D44*
%TO.C,C4*%
X195918603Y-127864000D03*
X195918603Y-128824000D03*
%TD*%
M02*
